<?xml version="1.0" encoding="UTF-8"?>
<!DOCTYPE svg PUBLIC "-//W3C//DTD SVG 1.1//EN" "http://www.w3.org/Graphics/SVG/1.1/DTD/svg11.dtd">
<!-- Creator: CorelDRAW -->
<svg xmlns="http://www.w3.org/2000/svg" xml:space="preserve" width="6.82666in" height="6.82666in" style="shape-rendering:geometricPrecision; text-rendering:geometricPrecision; image-rendering:optimizeQuality; fill-rule:evenodd; clip-rule:evenodd"
viewBox="0 0 6.82666 6.82666"
 xmlns:xlink="http://www.w3.org/1999/xlink">
 <defs>
  <style type="text/css">
   <![CDATA[
    .fil1 {fill:none}
    .fil0 {fill:#424242;fill-rule:nonzero}
   ]]>
  </style>
 </defs>
 <g id="Layer_x0020_1">
  <metadata id="CorelCorpID_0Corel-Layer"/>
  <path class="fil0" d="M0.92398 3.85067l0 -8.26772e-005 -0.000350394 1.1811e-005c-0.000759843,-0.0220748 0.00524016,-0.042815 0.0161457,-0.0602244 0.0178307,-0.0509016 0.0483346,-0.124732 0.0787677,-0.198402 0.0366181,-0.0886378 0.0731378,-0.177024 0.0819488,-0.201272 0.257354,-0.707949 0.740146,-1.11639 1.28668,-1.57876 0.119205,-0.10085 0.241571,-0.204366 0.369496,-0.318173 0.0564803,-0.0502323 0.106358,-0.131138 0.150657,-0.203 0.050622,-0.0821181 0.0954646,-0.154846 0.153886,-0.193866l-0.000129921 -0.000192913c0.00249213,-0.00165748 0.0050315,-0.00319291 0.00760236,-0.00461811 0.170839,-0.112551 0.351504,-0.18552 0.522004,-0.218291 0.184587,-0.0354803 0.359646,-0.0242441 0.501398,0.034315 0.0698071,0.0287441 0.131,0.0819291 0.180551,0.150079 0.0648189,0.0891378 0.111709,0.207205 0.13152,0.328315 0.020122,0.122996 0.0125394,0.251579 -0.032063,0.359898 -0.0301457,0.0732087 -0.0765906,0.137098 -0.141957,0.184673l9.05512e-005 0.000125984c-0.00337402,0.00245276 -0.00685039,0.00467323 -0.0103976,0.00667717 -0.157551,0.106815 -0.353657,0.0620866 -0.540449,0.0194528 -0.142673,-0.032563 -0.277622,-0.0633622 -0.317602,-0.00387008 -0.061815,0.0919803 -0.133193,0.299244 -0.21628,0.5405 -0.0859882,0.249689 -0.184039,0.53435 -0.304701,0.783819 0.138413,-0.00305512 0.279925,0.00996457 0.416941,0.0404843 0.156894,0.0349528 0.308161,0.092874 0.442724,0.175906 0.0364252,-0.0350591 0.0797756,-0.067122 0.128882,-0.0960945 0.217402,-0.128272 0.563295,-0.202606 0.909953,-0.207752 0.347843,-0.00516535 0.701886,0.0593543 0.935012,0.208886 0.0903701,0.0579646 0.163748,0.128862 0.213787,0.213665l-0.0916654 0.0541654 0.0918661 -0.0542047c0.0103189,0.0174882 0.0150748,0.0367165 0.0148031,0.0556339l0 2.19817c0,0.0589094 -0.0477598,0.106669 -0.106669,0.106669l-0.828008 0c-0.0434409,0 -0.0808189,-0.0259764 -0.0974528,-0.0632402 -0.0492323,-0.0848898 -0.106618,-0.150283 -0.177378,-0.230917 -0.0614764,-0.0700591 -0.132217,-0.150673 -0.213772,-0.259846 -0.219087,-0.29324 -0.347425,-0.283256 -0.64989,-0.25972 -0.21161,0.0164685 -0.496913,0.0386693 -0.927106,-0.00943307 -0.481547,-0.0538543 -0.968181,-0.234209 -1.33491,-0.46726 -0.377406,-0.239831 -0.633654,-0.541689 -0.643913,-0.832224l-1.9685e-005 0z"/>
  <rect class="fil1" width="6.82666" height="6.82666"/>
  <rect class="fil1" x="0.853331" y="0.853331" width="5.12" height="5.12"/>
 </g>
</svg>
