<?xml version="1.0" encoding="UTF-8"?>
<!DOCTYPE svg PUBLIC "-//W3C//DTD SVG 1.1//EN" "http://www.w3.org/Graphics/SVG/1.1/DTD/svg11.dtd">
<!-- Creator: CorelDRAW -->
<svg xmlns="http://www.w3.org/2000/svg" xml:space="preserve" width="6.82666in" height="6.82666in" style="shape-rendering:geometricPrecision; text-rendering:geometricPrecision; image-rendering:optimizeQuality; fill-rule:evenodd; clip-rule:evenodd"
viewBox="0 0 6.82666 6.82666"
 xmlns:xlink="http://www.w3.org/1999/xlink">
 <defs>
  <style type="text/css">
   <![CDATA[
    .fil1 {fill:none}
    .fil2 {fill:#424242}
    .fil0 {fill:#424242;fill-rule:nonzero}
   ]]>
  </style>
 </defs>
 <g id="Layer_x0020_1">
  <metadata id="CorelCorpID_0Corel-Layer"/>
  <path class="fil0" d="M4.74667 2.71858c0,-0.0589094 -0.0477598,-0.106669 -0.106669,-0.106669 -0.0589094,0 -0.106669,0.0477598 -0.106669,0.106669l0 0.891413c0,0.0589094 0.0477598,0.106669 0.106669,0.106669 0.0589094,0 0.106669,-0.0477598 0.106669,-0.106669l0 -0.891413z"/>
  <path class="fil0" d="M2.29334 2.71858c0,-0.0589094 -0.0477598,-0.106669 -0.106669,-0.106669 -0.0589094,0 -0.106669,0.0477598 -0.106669,0.106669l0 0.895213c0,0.0589094 0.0477598,0.106669 0.106669,0.106669 0.0589094,0 0.106669,-0.0477598 0.106669,-0.106669l0 -0.895213z"/>
  <rect class="fil1" width="6.82666" height="6.82666"/>
  <rect class="fil1" x="0.853331" y="0.853331" width="5.12" height="5.12"/>
  <path class="fil2" d="M2.8 1.83843c0.52172,0 0.996496,0.0899213 1.34233,0.235299 0.373386,0.156961 0.604339,0.384315 0.604339,0.644854 0,0.206996 -0.158571,0.359276 -0.402024,0.459906 -0.246866,0.102035 -0.589673,0.153094 -0.930756,0.153146 -0.323339,5.11811e-005 -0.648165,-0.0456181 -0.891169,-0.137004 -0.237689,-0.0893858 -0.404386,-0.225476 -0.437,-0.410909 -0.00315354,-0.0179488 -0.0045,-0.0367441 -0.00414567,-0.0562835 0.00204724,-0.112177 0.066252,-0.205 0.168846,-0.274646 0.087311,-0.0592717 0.204035,-0.102091 0.330748,-0.124378 0.0738622,-0.0129921 0.15298,-0.019189 0.233201,-0.0177205 0.0876614,0.0016063 0.174299,0.0128504 0.253929,0.0317402 0.0832087,0.0197362 0.161295,0.0482205 0.227587,0.0832087 0.104209,0.0550157 0.211142,0.0899016 0.224142,0.178358l0 0.513378c0.278374,-0.00916929 0.547335,-0.0543622 0.743783,-0.135559 0.163213,-0.0674606 0.26952,-0.156236 0.26952,-0.263236 0,-0.166646 -0.180953,-0.326039 -0.473504,-0.44902 -0.320106,-0.134563 -0.765346,-0.217795 -1.25983,-0.217795 -0.49448,0 -0.939717,0.0832323 -1.25982,0.217795 -0.292551,0.12298 -0.473504,0.282374 -0.473504,0.44902 0,0.237843 0.249602,0.461693 0.653146,0.631331 0.431098,0.18122 1.02967,0.293311 1.69352,0.293311 0.663846,0 1.26242,-0.112091 1.69352,-0.293311 0.403543,-0.169638 0.653146,-0.393488 0.653146,-0.631331 0,-0.0589094 0.0477598,-0.106669 0.106669,-0.106669 0.0589094,0 0.106669,0.0477598 0.106669,0.106669l-1.5748e-005 0.00109449 1.5748e-005 0.00120866 0 1.15446c0,0.331736 -0.299602,0.623547 -0.78398,0.827169 -0.456827,0.192035 -1.08493,0.310815 -1.77602,0.310815 -0.691091,0 -1.31919,-0.11878 -1.77602,-0.310815 -0.484378,-0.203622 -0.78398,-0.495433 -0.78398,-0.827169 0,-1.11957 0.000374016,-0.320402 0.000255906,-0.581965 -0.000114173,-0.261126 -0.00019685,-0.443862 0.00015748,-0.520472 1.9685e-005,-0.00498819 0.000389764,-0.00988976 0.0010748,-0.0146929 -0.000952756,-0.0131457 -0.00148819,-0.0263543 -0.00148819,-0.0396339 0,-0.260539 0.230953,-0.487894 0.604339,-0.644854 0.345835,-0.145378 0.820602,-0.235299 1.34233,-0.235299zm-1.40033 2.03263c0.00046063,-0.0293386 -0.0229528,-0.0535 -0.0522913,-0.0539606 -0.0293386,-0.00046063 -0.0535,0.0229528 -0.0539606,0.0522913l-0.0101654 0.553634c-0.00046063,0.0293386 0.0229528,0.0535 0.0522913,0.0539606 0.0293386,0.00046063 0.0535,-0.0229528 0.0539606,-0.0522913l0.0101654 -0.553634zm2.13349 0.668209c0.00080315,-0.0293386 -0.0223307,-0.0537795 -0.0516693,-0.0545827 -0.0293386,-0.00080315 -0.0537795,0.0223307 -0.0545827,0.0516693l-0.0101654 0.368846c-0.00080315,0.0293386 0.0223307,0.0537795 0.0516693,0.0545827 0.0293386,0.00080315 0.0537795,-0.0223307 0.0545827,-0.0516693l0.0101654 -0.368846zm0.309835 -0.245744c-0.00046063,-0.0293386 -0.024622,-0.052752 -0.0539606,-0.0522913 -0.0293386,0.00046063 -0.052752,0.024622 -0.0522913,0.0539606l0.0101654 0.553634c0.00046063,0.0293386 0.024622,0.052752 0.0539606,0.0522913 0.0293386,-0.00046063 0.052752,-0.024622 0.0522913,-0.0539606l-0.0101654 -0.553634zm-0.619669 0.0490984c0.00046063,-0.0293386 -0.0229528,-0.0535 -0.0522913,-0.0539606 -0.0293386,-0.00046063 -0.0535,0.0229528 -0.0539606,0.0522913l-0.0101654 0.553634c-0.00046063,0.0293386 0.0229528,0.0535 0.0522913,0.0539606 0.0293386,0.00046063 0.0535,-0.0229528 0.0539606,-0.0522913l0.0101654 -0.553634zm0.939669 0.106811c-0.00080315,-0.0293386 -0.0252441,-0.0524724 -0.0545827,-0.0516693 -0.0293386,0.00080315 -0.0524724,0.0252441 -0.0516693,0.0545827l0.0101654 0.368846c0.00080315,0.0293386 0.0252441,0.0524724 0.0545827,0.0516693 0.0293386,-0.00080315 0.0524724,-0.0252441 0.0516693,-0.0545827l-0.0101654 -0.368846zm-1.25967 0.0503425c0.00080315,-0.0293386 -0.0223307,-0.0537795 -0.0516693,-0.0545827 -0.0293386,-0.00080315 -0.0537795,0.0223307 -0.0545827,0.0516693l-0.0101654 0.368846c-0.00080315,0.0293386 0.0223307,0.0537795 0.0516693,0.0545827 0.0293386,0.00080315 0.0537795,-0.0223307 0.0545827,-0.0516693l0.0101654 -0.368846zm1.5233 -0.345551c-0.00046063,-0.0293386 -0.024622,-0.052752 -0.0539606,-0.0522913 -0.0293386,0.00046063 -0.052752,0.024622 -0.0522913,0.0539606l0.0101654 0.553634c0.00046063,0.0293386 0.024622,0.052752 0.0539606,0.0522913 0.0293386,-0.00046063 0.052752,-0.024622 0.0522913,-0.0539606l-0.0101654 -0.553634zm-1.78692 0.0490984c0.00046063,-0.0293386 -0.0229528,-0.0535 -0.0522913,-0.0539606 -0.0293386,-0.00046063 -0.0535,0.0229528 -0.0539606,0.0522913l-0.0101654 0.553634c-0.00046063,0.0293386 0.0229528,0.0535 0.0522913,0.0539606 0.0293386,0.00046063 0.0535,-0.0229528 0.0539606,-0.0522913l0.0101654 -0.553634zm2.13349 0.121114c-0.00080315,-0.0293386 -0.0252441,-0.0524724 -0.0545827,-0.0516693 -0.0293386,0.00080315 -0.0524724,0.0252441 -0.0516693,0.0545827l0.0101654 0.368846c0.00080315,0.0293386 0.0252441,0.0524724 0.0545827,0.0516693 0.0293386,-0.00080315 0.0524724,-0.0252441 0.0516693,-0.0545827l-0.0101654 -0.368846zm-2.48006 0.0503425c0.00080315,-0.0293386 -0.0223307,-0.0537795 -0.0516693,-0.0545827 -0.0293386,-0.00080315 -0.0537795,0.0223307 -0.0545827,0.0516693l-0.0101654 0.368846c-0.00080315,0.0293386 0.0223307,0.0537795 0.0516693,0.0545827 0.0293386,0.00080315 0.0537795,-0.0223307 0.0545827,-0.0516693l0.0101654 -0.368846zm2.78989 -0.283354c-0.00046063,-0.0293386 -0.024622,-0.052752 -0.0539606,-0.0522913 -0.0293386,0.00046063 -0.052752,0.024622 -0.0522913,0.0539606l0.0101654 0.553634c0.00046063,0.0293386 0.024622,0.052752 0.0539606,0.0522913 0.0293386,-0.00046063 0.052752,-0.024622 0.0522913,-0.0539606l-0.0101654 -0.553634zm-3.09972 0.0490984c0.00046063,-0.0293386 -0.0229528,-0.0535 -0.0522913,-0.0539606 -0.0293386,-0.00046063 -0.0535,0.0229528 -0.0539606,0.0522913l-0.0101654 0.553634c-0.00046063,0.0293386 0.0229528,0.0535 0.0522913,0.0539606 0.0293386,0.00046063 0.0535,-0.0229528 0.0539606,-0.0522913l0.0101654 -0.553634zm3.41972 0.0284016c-0.00080315,-0.0293386 -0.0252441,-0.0524724 -0.0545827,-0.0516693 -0.0293386,0.00080315 -0.0524724,0.0252441 -0.0516693,0.0545827l0.0101654 0.368846c0.00080315,0.0293386 0.0252441,0.0524724 0.0545827,0.0516693 0.0293386,-0.00080315 0.0524724,-0.0252441 0.0516693,-0.0545827l-0.0101654 -0.368846zm-3.73972 0.0503425c0.00080315,-0.0293386 -0.0223307,-0.0537795 -0.0516693,-0.0545827 -0.0293386,-0.00080315 -0.0537795,0.0223307 -0.0545827,0.0516693l-0.0101654 0.368846c-0.00080315,0.0293386 0.0223307,0.0537795 0.0516693,0.0545827 0.0293386,0.00080315 0.0537795,-0.0223307 0.0545827,-0.0516693l0.0101654 -0.368846zm4.00335 -0.470583c-0.00046063,-0.0293386 -0.024622,-0.052752 -0.0539606,-0.0522913 -0.0293386,0.00046063 -0.052752,0.024622 -0.0522913,0.0539606l0.0101654 0.553634c0.00046063,0.0293386 0.024622,0.052752 0.0539606,0.0522913 0.0293386,-0.00046063 0.052752,-0.024622 0.0522913,-0.0539606l-0.0101654 -0.553634z"/>
 </g>
</svg>
