<?xml version="1.0" encoding="UTF-8"?>
<!DOCTYPE svg PUBLIC "-//W3C//DTD SVG 1.1//EN" "http://www.w3.org/Graphics/SVG/1.1/DTD/svg11.dtd">
<!-- Creator: CorelDRAW -->
<svg xmlns="http://www.w3.org/2000/svg" xml:space="preserve" width="6.82666in" height="6.82666in" style="shape-rendering:geometricPrecision; text-rendering:geometricPrecision; image-rendering:optimizeQuality; fill-rule:evenodd; clip-rule:evenodd"
viewBox="0 0 6.82666 6.82666"
 xmlns:xlink="http://www.w3.org/1999/xlink">
 <defs>
  <style type="text/css">
   <![CDATA[
    .fil1 {fill:none}
    .fil0 {fill:#424242;fill-rule:nonzero}
   ]]>
  </style>
 </defs>
 <g id="Layer_x0020_1">
  <metadata id="CorelCorpID_0Corel-Layer"/>
  <g id="_319407368">
   <path id="_319407920" class="fil0" d="M2.17683 3.52c-0.055126,0 -0.099815,-0.0716378 -0.099815,-0.16 0,-0.0883622 0.044689,-0.16 0.099815,-0.16l2.47294 0c0.055122,0 0.099815,0.0716378 0.099815,0.16 0,0.0883622 -0.0446929,0.16 -0.099815,0.16l-2.47294 0z"/>
   <path id="_319407872" class="fil0" d="M5.67035 3.52c-0.059,0 -0.106831,-0.0716378 -0.106831,-0.16 0,-0.0883622 0.0478307,-0.16 0.106831,-0.16l0.194028 0c0.0589961,0 0.106831,0.0716378 0.106831,0.16 0,0.0883622 -0.0478346,0.16 -0.106831,0.16l-0.194028 0z"/>
   <path id="_319407608" class="fil0" d="M0.958039 3.52c-0.0589961,0 -0.106831,-0.0716378 -0.106831,-0.16 0,-0.0883622 0.0478346,-0.16 0.106831,-0.16l0.198126 0c0.0589961,0 0.106831,0.0716378 0.106831,0.16 0,0.0883622 -0.0478346,0.16 -0.106831,0.16l-0.198126 0z"/>
   <path id="_319407392" class="fil0" d="M1.77134 2.23999l0.186 0c0.0760709,0 0.145622,0.029937 0.196374,0.0781575 0.0521417,0.0495394 0.0845157,0.118154 0.0845157,0.19387l0 1.69595c0,0.0757205 -0.032374,0.144335 -0.0845157,0.193874 -0.050752,0.0482205 -0.120303,0.0781575 -0.196374,0.0781575l-0.186 0c-0.0760866,0 -0.145638,-0.0299409 -0.196402,-0.0781535 -0.0521535,-0.0495433 -0.0845236,-0.118161 -0.0845236,-0.193878l0 -1.69595c0,-0.0757205 0.0323701,-0.144335 0.0845236,-0.193874 0.0507717,-0.0482165 0.120319,-0.0781535 0.196402,-0.0781535z"/>
   <path id="_319408064" class="fil0" d="M1.30919 2.55982l0.148795 0c0.0632677,0 0.121957,0.0219882 0.165539,0.0574055 0.0497008,0.0403937 0.0805551,0.0977992 0.0805551,0.162429l0 1.16066c0,0.0646417 -0.0308465,0.122043 -0.0805512,0.162441 -0.0435866,0.0354134 -0.102268,0.0574094 -0.165543,0.0574094l-0.148795 0c-0.0632795,0 -0.121957,-0.0219961 -0.165543,-0.0574094 -0.0497047,-0.0403976 -0.0805512,-0.0977992 -0.0805512,-0.162441l0 -1.16066c0,-0.0646299 0.0308543,-0.122035 0.0805551,-0.162429 0.0435827,-0.0354173 0.102268,-0.0574055 0.165539,-0.0574055z"/>
   <path id="_319407512" class="fil0" d="M4.86935 2.24l0.186 0c0.0760827,0 0.145634,0.0299331 0.196398,0.0781535 0.0521496,0.0495315 0.0845157,0.11815 0.0845157,0.19387l0 1.69595c0,0.0757205 -0.0323701,0.144339 -0.0845157,0.193874 -0.0507638,0.0482205 -0.120315,0.0781535 -0.196398,0.0781535l-0.186 0c-0.0760748,0 -0.145618,-0.029937 -0.196382,-0.0781575 -0.0521457,-0.0495354 -0.0845118,-0.11815 -0.0845118,-0.19387l0 -1.69595c0,-0.0757205 0.0323701,-0.144331 0.0845118,-0.19387 0.0507598,-0.0482244 0.120307,-0.0781535 0.196382,-0.0781535z"/>
   <path id="_319407488" class="fil0" d="M5.3687 2.55982l0.148795 0c0.0632677,0 0.121957,0.0219961 0.165539,0.0574055 0.0497008,0.0403937 0.0805551,0.0977992 0.0805551,0.162429l0 1.16066c0,0.0646417 -0.0308465,0.122043 -0.0805512,0.162441 -0.0435866,0.0354134 -0.102272,0.0574094 -0.165543,0.0574094l-0.148795 0c-0.0632795,0 -0.121957,-0.0219961 -0.165543,-0.0574094 -0.0497047,-0.0403976 -0.0805512,-0.0977992 -0.0805512,-0.162441l0 -1.16066c0,-0.0646299 0.0308543,-0.122035 0.0805551,-0.162429 0.0435827,-0.0354173 0.102268,-0.0574055 0.165539,-0.0574055z"/>
  </g>
  <rect class="fil1" width="6.82666" height="6.82666"/>
 </g>
 <rect class="fil1" width="6.82666" height="6.82666"/>
</svg>
